<svg t="1690626592190" class="icon" viewBox="0 0 1024 1024" version="1.1" xmlns="http://www.w3.org/2000/svg" p-id="4311"
     width="200" height="200">
    <path d="M285.5 755.8c-6.7 0-13.2-3.7-16.4-10.1l-61-122c-7.8-15.6-14.9-27.3-21.1-37.7-27.3-45.2-39.4-71.4-39.4-218.8v-38.5c0-89.9 61.3-166.5 149-186.2l296-66.6c56.9-12.8 115.6 0.8 161.1 37.2 45.5 36.4 71.6 90.7 71.6 149l-1.3 19.5c-0.7 10.1-9 17.8-19.5 17-10.1-0.7-17.7-9.4-17-19.5l1.2-18.3c0-45.9-21.1-89.8-57.9-119.3s-84.3-40.4-130.3-30.1l-296 66.6C233.6 193.9 184 255.8 184 328.5V367c0 143.5 11.4 162.3 34.1 199.9 6.6 11 14.1 23.4 22.6 40.2l61 122c4.5 9 0.9 20-8.2 24.5-2.5 1.6-5.3 2.2-8 2.2z"
          p-id="4312" fill="#526488"></path>
    <path d="M749.9 726.9c-10.1 0-18.3-8.2-18.3-18.3 0-52.5 34.4-91.6 64.8-126 5.3-6 10.6-12 15.6-18 20.7-24.6 30.3-53.7 30.3-91.8v-30.5c0-38.9-31.7-70.6-70.6-70.6H465c-3.7 0-6.8 2.9-7 6.6-1.6 30.5 2.3 73 29.9 102.2 21.6 22.8 55.3 34.3 100.2 34.3h55.1c10.1 0 18.3 8.2 18.3 18.3s-8.2 18.3-18.3 18.3h-55.1c-55.3 0-97.9-15.4-126.7-45.7-36.6-38.6-41.9-91.6-39.9-129.3 1.2-23.1 20.4-41.2 43.5-41.2h306.8c59.1 0 107.1 48.1 107.1 107.2v30.5c0 47.2-12.4 83.8-38.9 115.3-5.2 6.2-10.7 12.4-16.2 18.6-28.6 32.5-55.6 63.1-55.6 101.8 0 10.2-8.2 18.3-18.3 18.3z"
          p-id="4313" fill="#526488"></path>
    <path d="M742.9 920.4H284.2c-34.7 0-62.9-24.6-62.9-54.9v-128c0-10.1 8.2-18.3 18.3-18.3h547.9c10.1 0 18.3 8.2 18.3 18.3v128c0 30.3-28.2 54.9-62.9 54.9z m-485-164.6v109.7c0 9.9 12.1 18.3 26.3 18.3h458.7c14.3 0 26.3-8.4 26.3-18.3V755.8H257.9z"
          p-id="4314" fill="#526488"></path>
</svg>
